<mxfile host="65bd71144e">
    <diagram id="fMpTp8S-Xt_RmwLCaR5d" name="Page-1">
        <mxGraphModel dx="1022" dy="576" grid="1" gridSize="10" guides="1" tooltips="1" connect="1" arrows="1" fold="1" page="1" pageScale="1" pageWidth="850" pageHeight="1100" math="0" shadow="0">
            <root>
                <mxCell id="0"/>
                <mxCell id="1" parent="0"/>
                <mxCell id="12" value="Database.js" style="ellipse;fontSize=16;strokeWidth=2;perimeterSpacing=0;" vertex="1" parent="1">
                    <mxGeometry x="273" y="51" width="94" height="28" as="geometry"/>
                </mxCell>
                <mxCell id="24" style="edgeStyle=none;html=1;fontSize=18;" edge="1" parent="1" source="13">
                    <mxGeometry relative="1" as="geometry">
                        <mxPoint x="170" y="205" as="targetPoint"/>
                    </mxGeometry>
                </mxCell>
                <mxCell id="13" value="cattle.js/drovers.js" style="rounded=1;strokeWidth=2;" vertex="1" parent="1">
                    <mxGeometry x="180" y="190" width="105" height="30" as="geometry"/>
                </mxCell>
                <mxCell id="14" value="" style="edgeStyle=elbowEdgeStyle;elbow=vertical;" edge="1" source="12" target="13" parent="1">
                    <mxGeometry relative="1" as="geometry"/>
                </mxCell>
                <mxCell id="16" value="" style="edgeStyle=elbowEdgeStyle;elbow=vertical;" edge="1" source="13" parent="1">
                    <mxGeometry relative="1" as="geometry">
                        <mxPoint x="380" y="360" as="targetPoint"/>
                    </mxGeometry>
                </mxCell>
                <mxCell id="19" value="Utils.js" style="ellipse;fontSize=18;strokeWidth=2;" vertex="1" parent="1">
                    <mxGeometry x="390" y="50" width="90" height="30" as="geometry"/>
                </mxCell>
                <mxCell id="20" value="journey.js" style="rounded=1;strokeWidth=3;" vertex="1" parent="1">
                    <mxGeometry x="480" y="197" width="102" height="30" as="geometry"/>
                </mxCell>
                <mxCell id="21" value="" style="edgeStyle=elbowEdgeStyle;elbow=vertical;" edge="1" source="19" target="20" parent="1">
                    <mxGeometry relative="1" as="geometry"/>
                </mxCell>
                <mxCell id="23" value="" style="edgeStyle=elbowEdgeStyle;elbow=vertical;" edge="1" source="20" parent="1">
                    <mxGeometry relative="1" as="geometry">
                        <mxPoint x="390" y="360" as="targetPoint"/>
                    </mxGeometry>
                </mxCell>
                <mxCell id="26" value="main.js" style="text;html=1;align=center;verticalAlign=middle;resizable=0;points=[];autosize=1;strokeColor=none;fillColor=none;fontSize=18;" vertex="1" parent="1">
                    <mxGeometry x="350" y="350" width="80" height="40" as="geometry"/>
                </mxCell>
            </root>
        </mxGraphModel>
    </diagram>
</mxfile>